<?xml version="1.0" encoding="utf-8"?>
<!-- Generator: Adobe Illustrator 28.1.0, SVG Export Plug-In . SVG Version: 6.00 Build 0)  -->
<svg version="1.1" id="Layer_1" xmlns="http://www.w3.org/2000/svg" xmlns:xlink="http://www.w3.org/1999/xlink" x="0px" y="0px"
	 viewBox="0 0 398.1 418.2" style="enable-background:new 0 0 398.1 418.2;" xml:space="preserve">
<style type="text/css">
	.st0{fill:none;stroke:#000000;stroke-width:3;}
	.st1{stroke:#000000;stroke-width:3;}
	.st2{fill:#2F0157;}
</style>
<circle class="st0" cx="197.5" cy="207.5" r="196"/>
<path class="st1" d="M166.5,22c0,11.3-9.2,20.5-20.5,20.5s-20.5-9.2-20.5-20.5S134.7,1.5,146,1.5S166.5,10.7,166.5,22z"/>
<path class="st1" d="M159.1,405.5c-6.5,9.3-19.2,11.6-28.5,5.1c-9.3-6.5-11.6-19.2-5.1-28.5s19.2-11.6,28.5-5.1
	C163.3,383.5,165.6,396.3,159.1,405.5z"/>
<path class="st2" d="M167.8,395.7c-6.9,10-20.7,12.4-30.6,5.5c-10-6.9-12.4-20.7-5.5-30.6c6.9-10,20.7-12.4,30.6-5.5
	C172.3,372.1,174.7,385.8,167.8,395.7z"/>
</svg>
