<?xml version="1.0" encoding="utf-8"?>
<!-- Generator: Adobe Illustrator 28.1.0, SVG Export Plug-In . SVG Version: 6.00 Build 0)  -->
<svg version="1.1" xmlns="http://www.w3.org/2000/svg" xmlns:xlink="http://www.w3.org/1999/xlink" x="0px" y="0px"
	 viewBox="0 0 250 250" style="enable-background:new 0 0 250 250;" xml:space="preserve">
<style type="text/css">
	.st0{display:none;}
	.st1{display:inline;}
	.st2{fill:#FEFEFE;}
	.st3{fill:#FDFDFD;}
	.st4{fill:#FCFCFC;}
	.st5{fill:#FBFBFB;}
	.st6{fill:#FAFAFA;}
	.st7{fill:#F6F6F6;}
	.st8{fill:#949494;}
	.st9{fill:#919191;}
	.st10{fill:#F5F5F5;}
	.st11{fill:#8A8A8A;}
	.st12{fill:#838383;}
	.st13{fill:#8B8B8B;}
	.st14{fill:#898989;}
	.st15{fill:#999999;}
	.st16{fill:#8E8E8E;}
	.st17{fill:#A1A1A1;}
	.st18{fill:#858585;}
	.st19{fill:#9A9A9A;}
	.st20{fill:#969696;}
	.st21{fill:#9B9B9B;}
	.st22{fill:#A0A0A0;}
	.st23{fill:#A5A5A5;}
	.st24{fill:#989898;}
	.st25{fill:#979797;}
	.st26{fill:#A6A6A6;}
	.st27{fill:#9C9C9C;}
	.st28{fill:#A9A9A9;}
	.st29{fill:#A2A2A2;}
	.st30{fill:#9D9D9D;}
	.st31{fill:#8D8D8D;}
	.st32{fill:#878787;}
	.st33{fill:#8F8F8F;}
	.st34{fill:#888888;}
	.st35{fill:#CCCCCC;}
	.st36{fill:#7005CE;}
	.st37{fill:#FFFFFF;}
	.st38{opacity:0.2;}
</style>
<g id="Layer_1" class="st0">
</g>
<g id="Cleaned" class="st0">
</g>
<g id="Cleaned_copy" class="st0">
</g>
<g id="Cleaned_copy_2">
	<g class="st38">
		<g>
			<polygon class="st37" points="109.2,48.3 109.2,48.3 109.2,48.3 			"/>
			<path class="st37" d="M213.6,133.5c-2.5-2.8-2.6-2.9-0.7-6.1c3.3-5.5,2.8-10.7-0.7-15.8c-1.8-2.6-3.6-5.2-5.9-7.4
				c-1.7-1.6-2-3.2-1.3-5.5c1-3,1.4-6.3-0.4-9.1c-1.6-2.6-1.6-5-0.8-7.7c1.2-4.3,0-8.2-3.3-10.9c-2.8-2.2-3.6-4.6-2.7-7.8
				c0.1-0.3,0-0.6,0.1-1c1.2-9.4-2.9-14.7-9.8-17.8c-6.6-2.9-12.8-6.4-18.3-11.1c-1.8-1.5-3.8-2.9-5.9-4.1
				c-3.8-2.2-7.8-3.7-12.3-3.9c-4.5-0.1-8.3,1.3-11.5,4.5c-2.2,2.1-2.2,2-4.9,0.9c-2.5-1-5.3-0.4-7.8-0.1c-1.7,0.2-2.7,0.3-4-0.9
				c-4.2-4-9.2-5-14.8-3.9c-5.6,1.1-10.3,3.9-14.6,7.5c-5.7,4.8-12.2,8.3-18.9,11.4c-7.4,3.4-11,10.3-9.3,18.4
				c0.5,2.6,0.1,4.3-2.2,5.8c-3,1.9-5.2,4.6-5.9,8.2c-0.5,2.4,0,4.8,0.7,7.1c0.4,1.3,0.5,2.5-0.4,3.7c-2.6,3.3-2.4,7.2-1.3,10.9
				c0.8,2.5,0.1,4.1-1.5,5.8c-2.9,3.1-5.5,6.4-7.3,10.3c-1.8,3.8-1.7,7.5,0.3,11.2c0.5,0.9,0.9,1.8,1.5,2.5c1,1.3,0.7,2.3-0.4,3.4
				c-2,1.9-3.7,3.9-5.3,6.1c-2.6,3.6-3.9,7.7-3.6,11.9c0.5,7.4,3.2,14.2,8.7,19.5c1.3,1.2,1.8,2.4,1.1,4c-0.9,2.4-1.1,4.9-1,7.4
				c0.1,2.2,0,4.3,0.5,6.5c2.4,10.4,7.8,19,15.7,26c3.7,3.3,7.7,6.4,12.8,7.3c4.6,0.8,8.3-1.8,8.8-6.4c0.4-3.4,0.2-6.8-2-9.6
				c-1.1-1.5-0.9-2.7-0.1-4.1c1.7-2.9,3-6,3.6-9.3c1.9-9.7-5.5-19.3-15.3-19.6c-1.2,0-2.4,0-3.6,0c-1,0-1.3-0.6-1-1.5
				c0.2-0.5,0.3-1,0.5-1.6c2.2-6.7,4.3-13.4,5.2-20.4c0.1-1,0.3-1.9,0.4-2.9c0.1-0.6,0.1-1.4,1-1.3c0.7,0.1,0.8,0.7,0.8,1.2
				c0,1.1,0.1,2.1,0.4,3.2c2.2,9,5.4,17.6,9.6,25.9c3,6,6.3,11.9,11.2,16.7c7.2,7,15.6,12,24.9,15.6c5.6,2.1,11.2,2.1,16.8-0.1
				c3.5-1.4,7-3,10.3-4.9c8.8-5,16.6-11.2,21.7-20.1c6.6-11.3,11.7-23.2,14.1-36.2c0.1-0.5,0-1.2,0.7-1.3c0.9-0.1,1,0.7,1,1.3
				c0.1,2.5,0.6,4.9,1.1,7.4c1.1,5.5,2.9,10.9,4.4,16.3c0.7,2.4,0.4,2.7-2,2.6c-3-0.1-5.8,0.3-8.6,1.3c-6.4,2.3-11.1,10.6-10,17.3
				c0.8,4.6,2.6,8.7,5.1,12.6c1.1,1.6,1.3,3,0.4,4.8c-1.2,2.4-1.7,5.2-1.4,7.9c0.5,4.5,3.4,6.5,7.7,5.4c1.6-0.4,3.1-1,4.5-1.8
				c10.7-6.1,18-15.1,22.2-26.7c2.2-6,3.3-12.2,1-18.5c-0.9-2.4-0.3-3.9,1.4-5.7c4.6-4.9,6.9-11,7.5-17.6
				C221.1,143.7,217.9,138.4,213.6,133.5z M205.1,106.9c0.8-0.3,1,0.6,1.4,1c2.6,3.1,5,6.3,5.8,10.3c0.1,0.6,0.2,1.3,0.3,1.7
				c-0.4,2.8-1.2,5.2-2.7,7.4c-0.5,0.7-1,0.7-1.6,0.2c-1.9-1.9-3.9-3.8-5.4-6c-0.5-0.8-0.4-1.6-0.2-2.5c1-3.4,1.4-7,1.7-10.5
				C204.5,108,204.4,107.2,205.1,106.9z M203,97.8c-0.4,1.3-1,1.3-1.8,0.5c-2.6-2.5-5.7-4.3-8.6-6.3c-2.9-2.1-4.9-4.8-5.9-8.3
				c-0.3-1.2-0.5-3.4-1.8-3c-2,0.6-0.7,2.6-0.4,3.9c1.1,4.2,3.7,7.2,7.2,9.7c2.1,1.5,4.4,2.7,6.4,4.5c2.6,2.3,4,5,3.8,8.5
				c-0.2,2.9,0,5.9-0.9,8.7c-0.1,0.4-0.2,0.9-0.7,1c-0.5,0.1-0.8-0.3-1-0.7c-0.7-1.1-1.3-2.3-1.5-3.6c-1.2-7.2-5.4-12.1-11.7-15.5
				c-2.8-1.5-5.6-2.8-8.4-4.2c-2.7-1.4-5.4-2.7-7.6-4.9c-0.5-0.5-1.1-1.1-1.5-1.7c-0.4-0.5-0.9-1.1-0.4-1.7c0.4-0.6,1-0.2,2,0
				c1.7-0.4,3.9-0.7,6-1.6c2.4-1,3.2-3.4,2.6-6.7c-0.4-2.5-0.4-2.5,2-2.5c1.4,0,2.9,0.2,4-0.9c1.6-1.6,2.2-0.4,2.6,0.9
				c1.5,5,4.9,8.2,9.3,10.8c2.9,1.7,5.6,3.7,6.5,7.3C203.8,94.1,203.5,95.9,203,97.8z M152,72.4c0.4,2.9-3.5,7-6.3,7
				c-0.8,0-1.2-0.5-1.3-1.2c-0.1-1-0.2-1.9-0.3-2.9c-0.4-6,4.3-9.5,8.8-10.3c0.4-0.1,0.9-0.2,1.2,0.2c0.5,0.6,0,1-0.4,1.3
				C152.1,68.1,151.8,70.1,152,72.4z M143.3,67.3c-1,0.4-1.7,1.2-2.5,2c-2,1.9-4.5,1.5-5.9-0.9c-0.5-0.9-0.9-2-1.2-3
				c-0.7-2.3-0.4-2.6,1.7-3.7c1-0.5,2-0.9,2.8-1.6c1.2-0.9,2.2-1.8,3.7-0.8c1.7,1.1,3.2,2.3,3.1,4.9C145,65.2,144.9,66.6,143.3,67.3
				z M166.6,69.1c0.4-0.1,0.8-0.3,1.2-0.4c4-0.4,4.6-1.2,4.5-5.3c-1.7-1.2-3.3-1.6-5,0c-0.1,1.1,0.4,1.4,1.5,1.6
				c1,0.1,1.2,1.2,0.3,1.8c-1.1,0.8-2.1,0.6-2.9-0.3c-1-1.1-1.6-2.2,0.1-3.2c0.4-1.7,1.6-2.4,3.2-2.5c1.8-0.1,3,0.8,3.6,2.5
				c1,2.8,0.5,4.5-1.9,6c-0.2,0.2-0.4,0.4-0.7,0.7c-0.6,0.6-1.1,1.3-2.1,1.2c-0.4,0-0.9,0-1.3,0c-0.7-0.4-1.4-0.8-2.1-1.2
				c-2.7-1.2-3-3.5-3-6c0-0.8,0.3-1.7,0.5-2.5c-0.6-0.7-1.2-0.6-2-0.2c-1.6,0.9-3.3,0.5-4.5-0.9c-1-1.2-1-3.1,0.1-4.5
				c0.7-0.8,1.4-1.6,2.1-2.4c1.5-1.7,3.3-1.7,4.7-0.1c1.2,1.4,1.9,3.2,2.5,4.9c0.6,1.5-0.6,2.4-1.6,3.3c-0.1,1-0.1,2.1-0.2,3.1
				C163.7,66.7,164.6,68.2,166.6,69.1z M175.7,67.3c0.2-3.9,2.2-5.8,6-5.7c2.3,0.1,3.1,1.4,3,5c-0.2,3.8-1.2,5.3-3.4,5.1
				C178.5,71.4,175.6,69.2,175.7,67.3z M176.8,78.6c-0.3,1.4-1.1,2.5-2.5,2.6c-2.1,0-4.3,2.4-6.3-0.2c-0.8-1-0.7-2.2-0.7-3.4
				c0.1-3.7,1.7-5.4,5.2-5.6c0.3,0,0.7,0,0.9,0.2C174.7,72.7,177,77.2,176.8,78.6z M178.2,55.8c-0.3,0.6-0.7,1.1-1.2,1.5
				c-2.3,2.7-4.3,2.9-7.1,0.7c-1.1-0.9-0.6-2.2-0.8-3.5c0.2-0.8,0.2-1.9,0.6-2.9c0.7-2.2,2.5-2.9,4.5-1.7c0.7,0.5,1.5,0.8,2.3,1.1
				C178.9,51.8,179.5,53.6,178.2,55.8z M163.8,73c-0.1,1.1-2.8,3.8-4,4c-1.8,0.3-2.8-0.5-3.5-2.2c-0.2-0.6-0.6-1.1-1-1.7
				c-1.9-3.1-0.5-5.9,3.1-6c0.8,0,1.6,0,2,0.8c0.7,1.5,1.7,2.7,2.9,3.8C163.7,72.1,163.8,72.5,163.8,73z M163.2,40.5
				c-0.5,3.9-0.5,8.1-5.2,9.9c-0.9,0.3-1.3,1.1-1.7,1.9c-0.6,0.9-1.4,1.6-2.4,2.1c-0.4,0.2-0.8,0.4-1.2,0.2
				c-0.4-0.3-0.4-0.8-0.3-1.2c0.3-1.2,0.7-2.5,1.1-3.7c2-3.9,4.6-7.4,7.8-10.5h0C162.6,38.7,163.3,39.3,163.2,40.5z M153.9,61.9
				c-0.1,0.1-0.2,0.5-0.4,0.6c-1.6,0.7-3.3,1.1-5,1.2c-1.2,0-0.9-1.5-1.3-2.3c-0.3-0.7-0.3-1.5,0.7-1.8c1.2-0.4,2.5-0.7,3.8-0.9
				C152.7,58.5,154,60.5,153.9,61.9z M153.4,47c-0.3,0.7-1.1,0.6-1.8,0.5c-0.3-0.6-0.7-1.1-0.9-1.7c-1.2-3.4-0.5-4.9,2.7-6.5
				c2.1-1,4.2-1.7,6.6-1.4C157.8,41,154.9,43.5,153.4,47z M150.7,55c0.4,0.7,0.1,1.5-0.5,2c-0.8,0.6-1.6,0.4-2.5,0.2
				c-0.3,0-0.6,0.1-0.9,0.1c-0.7,0.1-1.5,0-1.5-0.8c0-0.8,0.8-1,1.4-0.8c1,0.2,1.6-0.4,2.3-0.8C149.6,54.5,150.3,54.2,150.7,55z
				 M153.5,77.5c0.7-0.5,1.2,0,1.7,0.4c1.8,1.4,3.7,2.1,6,1.3c1.1-0.4,1.8,0.2,2,1.4c1.2,7.3,6.4,11.2,12.6,14.2
				c3.7,1.8,7.5,3.3,11,5.6c0.7,0.5,1.4,1,2.1,1.5c0.4,0.3,0.9,0.8,0.6,1.3c-0.2,0.4-0.8,0.3-1.2,0.2c-6.8-1.5-13.7-2.3-20.3-4.5
				c-6.4-2.2-10-7-12.5-12.9c-0.9-2.2-1.9-4.4-2.3-6.8C153.2,78.6,153,77.9,153.5,77.5z M201.7,81.4c-0.4,2.6-1.1,2.8-3.4,1.5
				c-4.4-2.5-7.3-6-9.2-10.9c-1-2.7-2.6-4.8-1.8-7.9c0.3-1.5-1.1-2.7-1.9-4c-1.4-1-3.1-0.7-4.7-0.9c-0.4,0-0.9-0.2-1-0.7
				c-0.1-0.7,0.4-1,1-1c2.6-0.3,4.8,0.5,6.5,2.6c0.9,0.6,1.2,1.5,1.7,2.3c2,3.3,4.4,6.1,7.7,8.2C200.6,73.2,202.5,76.7,201.7,81.4z
				 M138.5,40.4c0.5-1,0.9-2,0.8-3.1c-0.4-2.6,1-4.3,2.8-5.9c5-4.5,10.6-4.5,16.4-2.1c3.6,1.4,6.8,3.4,9.7,5.9
				c5.5,4.5,11.5,8.2,18,11c4.4,1.9,7.9,4.5,9.2,9.4c0.4,1.5,0.5,3,0.5,4.7c-0.3,1.5,0.7,4.1-1.4,4.6c-1.7,0.4-2.5-2.1-3.3-3.6
				c-1.8-3.1-4.2-5.3-7.7-6.1c-1.4-0.3-2-1.1-2.3-2.4c-1-4.3-4.7-5.1-8.1-5.8c-2.7-0.6-4.2,0.6-5.3,3.2c-0.3,0.7-0.5,1.4-0.9,2.1
				c-0.2,0.4-0.4,0.8-1,0.6c-1.3-0.5-2.6-3.6-2-4.9c1.4-2.9,1.7-6,1.5-9.2c-0.1-2.8-0.6-3.3-3.5-3.5c-4.3-0.3-8.2,0.8-11.7,3.2
				c-1.4,1-2.7,1.4-4.5,0.9c-2.3-0.7-4.2,0.5-5.9,2.1c-0.4,0.4-0.8,0.8-1.4,0.4C138,41.4,138.2,40.9,138.5,40.4z M138.6,45.4
				c1.2-0.9,2.3-2,3.6-2.8c2.8-1.8,5.4-0.7,6.1,2.5c0.2,1.1,0.7,2,1.1,3c0.7,1.6,0.5,3.3-0.8,4.5c-1.3,1.2-3,1.7-4.8,1.3
				c-0.7-0.1-1.1-0.6-1.3-1.3c-0.3-0.7-0.6-1.6-1.5-1.5c-1.2,0.2-0.9,1.3-1.1,2.1c-0.2,0.6-0.4,1.2-0.6,1.8
				c-1.6,3.5-4.4,4.9-7.9,4.2c-3-0.6-5.1-3.4-5.1-7c0-1.1-0.1-2.2,0.4-3.2c1-2.1,3.7-3.1,5.8-2.2c2.2,0.9,3.8,3.7,3.2,5.8
				c-0.4,1.5-1.7,2.5-3.1,2.2c-1.3-0.2-2.2-1-2.3-2.4c0-0.3,0.1-0.7,0.3-0.9c0.4-0.4,0.7-0.2,1,0.2c0.5,0.7,1,1.3,1.8,0.6
				c0.9-0.7,0.4-1.6-0.1-2.3c-0.8-1.3-2-1.6-3.4-1.2c-1.4,0.4-2.2,1.3-2.3,2.8c-0.3,2.4,1.5,5,4,5.7c2.4,0.6,4.8-0.6,5.9-2.9
				c0.8-1.7,0.7-3.4,0-5.1C136.7,47.7,137.2,46.5,138.6,45.4z M116.7,79.2c-1.6,0.8-2.9-0.5-4.1-1.4c-2-1.5-3.6-3.2-2.8-6.3
				c0.5-1.9,0-3.9-2-5.1c-0.5-0.3-1-0.6-0.6-1.2c0.3-0.5,0.9-0.4,1.5-0.3c5.7,0.9,9.5,5.5,9,10.8C117.5,76.7,118.3,78.5,116.7,79.2z
				 M93.3,62.6c-0.8-0.6-1.6-0.4-2.4,0.2c-1.2,0.9-1.5,2.1-1.2,3.4c0.3,1.2,1,2.3,2.2,2.5c1.3,0.2,2.6,0.3,3.9,0
				c1.3-0.3,2.2-1.4,2.3-2.8c0.1-1.5,0.2-3-0.5-4.5c-1-1.1-1.9-2.3-1.2-3.8c0.9-1.9,1.6-4.1,3.6-5.2c0.2-0.1,0.4-0.1,0.6-0.2
				c1.4-0.3,5.2,2.9,5.8,4.9c0.5,1.6-0.4,3.2-2.3,4.2c-1,0.5-2,1-2.9-0.1c-0.5-0.5-1.1-0.6-1.8-0.5c0,1.6,0.1,3.3,0.1,4.9
				c0,3.3-4.2,6.9-8.3,4.9c-2.6-1.3-4-5.7-2.3-8.1c0.9-1.3,2.6-1.9,4.3-1.5c1.8,0.4,2.7,1.9,3.2,3.3c0.4,1.2-0.7,2.3-1.8,2.8
				c-0.9,0.5-1.9,0.3-2.6-0.7c-0.4-0.7-0.4-1.3,0.5-1.4c0.7-0.1,1.6,0.6,1.9-0.6C94.8,63.3,93.9,63,93.3,62.6z M112,56.5
				c-0.6-0.4-0.9-1-0.5-1.6c0.4-0.7,0.9-0.3,1.4,0c1,0.7,2,1.1,3.3,0.9c0.7-0.1,1.4,0,1.4,0.9c0,0.8-0.8,0.8-1.6,0.8
				C114.7,56.8,113.2,57.3,112,56.5z M114.5,62.7c-0.4,1.1-0.9,1.3-1.9,1c-0.8-0.3-1.7-0.4-2.5-0.6c-1-0.3-2.4-0.3-1.9-2
				c0.3-1.3,0.8-2.6,2.6-2.3c0.6,0.1,1.3,0.2,1.9,0.4C115.7,59.8,115.6,59.8,114.5,62.7z M111,46.7c-0.2,0.5-0.4,1-0.6,1.5
				c0,0.4,0,0.9-0.5,1c-0.5,0.1-0.6-0.4-0.7-0.8c-0.2-0.2-0.4-0.4-0.7-0.6l0,0c-0.2-0.5-0.3-1-0.5-1.5c-1.3-2.5-3-4.6-5-6.6
				c-1.1-1-0.8-1.6,0.7-1.7c0.3,0,0.6,0,1-0.1c1.3,0.4,2.7,0.9,3.9,1.5C112.1,41.4,112.7,42.9,111,46.7z M107.9,48.9L107.9,48.9
				c0.2,0.3,0.4,0.6,0.6,0.9c-0.1,1.2,0.6,2.3,0.9,3.4c0.1,0.5,0.3,1.1-0.2,1.5c-0.5,0.3-1-0.1-1.5-0.4c-0.9-0.6-1.7-1.3-2.2-2.3
				c-0.5-0.9-1.2-1.4-2.1-1.8c-2.9-1.4-5.3-7.1-4.5-10.3c0.3-1.1,1-0.9,1.8-0.6C103.6,42.1,106.2,45.2,107.9,48.9z M107.3,71.3
				c-0.5,1.6-1.6,3.5-2.8,5.1c-0.8,1.1-2.4,0.9-3.5,0c-0.9-0.7-1.6-1.7-2.4-2.6c-0.1-0.2-0.3-0.4-0.3-0.6c0.2-2.5,2.5-3.6,3.6-5.5
				c0.7-1.3,2.6-0.4,3.9,0.2C107,68.4,107.4,69.5,107.3,71.3z M90.2,58.7c-3.1,1.3-3.1,1.3-4.9-0.8c-0.6-0.7-1.3-1.5-1.7-2.4
				c-1-1.9-0.4-3.8,1.5-4.5c0.9-0.4,1.7-0.8,2.6-1.3c2-1.1,3.9-0.3,4.5,1.9c0.3,1,0.2,2.1,0.3,3.2C92.8,57.6,92.8,57.6,90.2,58.7z
				 M83.6,62.3c1.4,0.3,2,1.2,2.2,2.8c0.6,4.2,0.2,4.9-3.9,6.2c-2.9,0.9-4.4-0.1-4.6-3c-0.1-1.1,0-2.2-0.4-3.1c-0.1-1.1,0.3-2,1-2.7
				C79.8,61,81.7,61.9,83.6,62.3z M86.2,75.3c0.4-0.8,0.9-1.5,1.3-2.2c0.7-1,1.6-1.4,2.8-0.8c0.5,0.3,1,0.6,1.5,0.7
				c1.8,0.2,2.6,1.3,2.6,3c0,0.7,0.2,1.5,0.3,2.1c0,3.3-1.7,4.5-4.8,3.6c-0.3-0.1-0.6-0.2-0.9-0.3C84.9,80.4,84.2,78.8,86.2,75.3z
				 M98.3,81.2c0.4-2.1,0.8-2.5,2.8-1.9c2.1,0.6,3.8-0.1,5.4-1.3c1-0.8,1.8-1.1,2.8,0c0.9,1,2.4,1.8,1.5,3.5c-4,7.4-8.6,14-17,17
				c-5,1.8-10.3,2.6-15.4,3.8c-1.5,0.3-3,0.5-4.6,0.8c-0.3-0.1-0.9-0.1-1-0.3c-0.3-0.6,0.2-1,0.6-1.3c3-2.3,6.4-4,9.9-5.5
				c2.4-1.1,4.7-2.2,6.9-3.6C94.4,89.8,97.4,86.3,98.3,81.2z M118.3,60.7c0.4-0.4,0.8-0.7,1.2-1c1.4-1,2.8-2.8,4.3-2.5
				c1.9,0.4,2.9,2.7,4.5,4c0.6,0.5,0.4,1.4,0.4,2.2c-0.1,1.9-0.7,3.6-1.6,5.2c-1.3,2.2-3.6,2.5-5.5,0.9c-0.8-0.7-1.5-1.5-2.5-2.1
				C116.6,65.7,116.3,62.9,118.3,60.7z M129.9,33c1,0.2,1.9,0,2.9-0.1c2.4-0.3,4.2,1.4,4.2,3.8c0,0.9-0.1,1.7-0.4,2.6
				c-0.5,1.8-0.8,3.9-2.4,4.8c-1.6,1-3.8-0.2-5.7,0.2c-0.4,0.1-0.8-0.3-1-0.7c-1-2-1.9-4.1-2-5.9C125.4,34.2,127.1,32.6,129.9,33z
				 M124.1,45.8c0.6,0.6,0.7,1.3,0.3,2.1c-0.3,0.6-0.6,1.2-0.7,1.8c-1,3.8-1,3.8-5.7,3.9c-0.3,0-1.3,0-2.3-0.2
				c-2.7-0.6-3.8-2.9-2.8-5.4c0.4-1,0.9-1.9,1.1-3c0.6-3.1,3-4.2,5.8-2.7C121.5,43.2,122.8,44.5,124.1,45.8z M72.3,49.3
				c1.2-1,2.4-1.8,3.8-2.4C83,43.8,89.6,40,95.6,35.3c3.9-3.5,8.4-6,13.6-7.2c5-1.2,9.2,0.2,12.9,3.5c0.6,0.5,1.4,1.1,1.3,1.8
				c-0.3,2.3-0.2,4.5,0.1,6.7c0.1,0.9-0.8,1-1.4,0.6c-2.3-1.5-4.7-2-7.4-1c-1.1,0.4-2-0.6-2.9-1.2c-2.9-2.1-6.2-3-9.7-3.3
				c-2.1-0.1-4.1,0.2-5.8,1.6c-0.1,4,0.2,8,2,11.7c0.5,1.1-1.1,3.8-2.3,4.1c-0.3,0.1-0.7,0-0.8-0.3c-0.3-0.5-0.5-1-0.7-1.5
				c-1.6-4-4.1-4.7-8.2-3.1c-3,1.2-5,2.8-5.7,6c-0.2,0.7-0.6,1.1-1.3,1.2c-3.9,0.9-6.9,3.1-8.6,6.8c-0.2,0.4-0.5,0.7-0.8,1
				c-0.6,0.5-1.2,0.6-1.5-0.3C66.9,58.3,68.7,52.2,72.3,49.3z M62.1,73.5c0.4-0.4,0.7-0.8,1.1-1.2c4.4-3.2,8.3-6.9,10.9-11.9
				c0.2-0.4,0.8-0.7,1.2-1.1c1.5-1.5,3.2-2.1,5.3-2c0.8,0,1.7,0.1,1.6,1.1c0,0.8-0.9,0.8-1.5,0.8c-1.4,0-2.8,0-4.1,0.7
				c-1.7,2-2.7,4.2-1.7,6.9c0.3,0.8,0,2-0.6,2.4c-1.7,1.3-2,3.3-2.7,5.1c-1.7,4.5-5.4,6.9-9.3,9.2c-1.1,0.6-1.8,0.1-1.9-0.9
				C60,79.5,59.6,76.2,62.1,73.5z M62.9,86.2c1.8-1.3,3.6-2.4,5.4-3.6c2.8-1.9,4.7-4.5,5.7-7.7c0.2-0.7,0.5-1.4,0.8-2.1
				c0.3-0.5,0.8-0.9,1.3-0.3c1.5,1.6,3.5,1.5,5.5,1.4c1.9,0,2.2,0.2,1.5,2c-0.7,2-0.6,3.8,0.7,5.5c0.9,1.2,1.9,2.1,3.5,2.2
				c2.1,0.1,4,1.7,6.3,0.6c0.5-0.3,1,0.5,0.6,1.1c-0.4,0.7-0.9,1.2-1.4,1.8c-2.5,2.8-5.8,4.5-9.1,6.1c-3.8,1.8-7.7,3.5-11.2,6
				c-4.5,3.2-7.2,7.4-8.4,12.7c-0.4,1.9-0.8,3.8-2.4,5.2c-1.7-1.4-1.4-3.5-1.6-5.3c-0.1-0.6-0.2-1.3-0.3-1.9
				c-0.8-5.1,0.9-9.2,5.2-12.1c1.8-1.2,3.6-2.4,5.4-3.6c3.6-2.4,5.9-5.7,7-9.9c0.1-0.5,0.3-1,0.4-1.6c0.1-0.7,0.3-1.7-0.6-2
				c-1-0.3-1.2,0.7-1.5,1.3c-0.2,0.3-0.3,0.6-0.3,0.9c-0.9,4.4-3.6,7.6-7.3,10c-2.6,1.6-5.2,3.2-7.3,5.4c-1,1.1-1.6,0.6-2-0.6
				c-0.3-1.1-0.5-2.1-0.5-3.2C58.4,90.9,60.1,88.2,62.9,86.2z M49.3,120.1c0.2-1.9,0.7-3.9,1.6-5.8c1-1.8,2.1-3.6,3.5-5.1
				c0.8-0.8,1.2-2.7,2.4-2.2c0.9,0.3,0.7,2.1,0.8,3.3c0.4,2.9,0.7,5.8,1.5,8.6c0.5,1.6,0.3,3-1,4.2c-1.4,1.4-2.8,2.8-4.1,4.2
				c-1,1.1-1.8,0.9-2.6-0.3C50.3,124.9,49.4,122.7,49.3,120.1z M49.8,166.7c-2.7-2.8-4.5-6.1-5.6-9.8c-0.7-2.3-1.2-4.6-1.4-7
				c-0.3-7,3.4-11.8,8.1-16.3c0.8-0.8,1.8-0.9,2.6,0.1c3.7,4.4,7.4,8.9,6.9,15.4c0.4,3.3-1.1,6.4-2.5,9.4c-1.3,2.7-2.9,5.3-4.5,7.9
				C52.1,168.6,51.6,168.6,49.8,166.7z M61.7,187.3c-0.8,5.1-1.1,10.1-0.2,15.2c0.1,0.6,0.4,1.4-0.4,1.7c-0.8,0.3-1.2-0.4-1.5-0.9
				c-4.7-6.8-7.9-14.2-8.2-22.6c-0.1-2,0.5-3.9,0.9-5.8c0.4-1.8,1-2.1,2.8-1.5c2.5,0.9,4.9,1.7,7.6,1.8c1.6,0.1,1.7,0.9,1.3,2.2
				C62.9,180.7,62.2,184,61.7,187.3z M85.1,212.2c-0.5,2.2-0.4,4.7-2.9,5.8c-2.6,1.2-4.9,0.3-7.1-0.9c-0.9-0.5-1.1-1.4-0.4-2.2
				c2.5-2.6,4.5-5.5,6.6-8.4c0.8-1.1,1.5-1,2.2,0.1C84.6,208.3,84.6,210.3,85.1,212.2z M71.3,174.1c0.3,0,0.7,0,1,0
				c9.2-0.8,16.4,9,13.5,18.3c-2.5,8.2-7.6,14.8-13.1,21.1c-1.1,1.3-2.2,1.1-3.3,0c-2-2-3.6-4.4-4.5-7.1c-1.6-4.9-2.4-9.8-1.4-15
				c0.8-4.4,1.4-8.8,2.6-13C67.3,174.2,67.2,174.2,71.3,174.1z M72.4,142.9c-0.4,9.1-3,16.8-5.4,24.6c-0.1,0.4-0.3,0.8-0.4,1.2
				c-1.1,3.9-1,4.3-6.3,4c-0.4,0-0.9-0.1-1.3-0.2c-5.7-1.8-5.1-2.1-2.5-6.2c2-3.2,3.8-6.6,5.2-10.1c2.4-6.2,1.9-12.1-1.7-17.7
				c-1.3-2.1-2.9-4-4.5-6c-1-1.3-1.1-2.3,0.2-3.3c0.2-0.1,0.3-0.3,0.5-0.5c1.6-1.3,2.7-3.9,4.5-4c1.8-0.1,2.3,2.8,3.7,4.1
				c1.2,1.1,2.2,2.4,3.5,3.4C71.5,135.2,72.6,139.2,72.4,142.9z M182.7,147.9c-2.6,10.5-5.8,19.9-11.2,29.2
				c-0.8,1.4-2.2,4.1-3.7,5.9c0-0.5-0.1-8.4,0-11.1c0-0.6,0-1.3-0.1-1.9c0-0.3-0.2-0.6-0.6-0.7c-0.4-0.1-0.6,0.3-0.6,0.6
				c-0.1,0.7-0.1,1.5-0.1,2.3c0,4.1,0,8.2,0,12.3c-1.1,1.3-2.3,2.6-3.4,3.8c-0.4,0.4-0.9,0.7-1.4,0.5c-0.8-0.2-0.8-0.9-0.8-1.6
				c0-2.4,0-4.7-0.1-7.1c0-0.4-0.1-1-0.5-1.1c-0.7-0.1-0.7,0.7-0.7,1.2c0,2.5,0,5,0,7.4c0,4.6-1.5,5.8-5.7,8.4
				c0-0.6-0.3-1.9-0.3-2.5c0-2.4,0-4.8,0-7.1c0-0.6,0-1.5-0.9-1.4c-0.8,0-0.9,0.9-0.9,1.5c0,0.6,0,1.3,0,1.9c0,3,0,6.1-0.1,9.1
				c-5,3-10.1,5.8-15.8,7.3c-4.3,1.2-8.3,0.6-12.4-0.8c-4-1.4-7.6-3.5-11.5-5.2c-1.5-1.3-2.1-2.9-2-4.9c0.1-2.6,0-5.2,0-7.8
				c0-0.4-0.1-1-0.6-1c-0.8-0.1-0.7,0.6-0.8,1.1c0,0.5,0,5.3,0,7.1c0,0.7,0.2,1.6-0.7,2c-0.8,0.3-1.4-0.4-2-0.8
				c-2.9-1.6-3.9-3.9-3.7-7.3c0.1-2.4,0-5,0-7.5c0-0.4,0-1-0.5-1c-0.5,0-0.7,0.5-0.7,0.9c-0.1,2.4-0.2,8.2-0.5,9.7
				c-0.1,0.7-1.6-1.1-2.1-1.5c-0.9-0.9-1.8-1.9-2.7-2.8c-0.1-1.4-0.2-2.8-0.2-4.2c0-3.4,0-6.9,0-10.3c0-0.5,0.1-1.2-0.6-1.2
				c-0.7,0-0.6,0.8-0.6,1.3c0,3.3,0,7.7,0,11.2c0,0.4-0.5,0.6-0.8,0.3c-0.5-0.5-0.9-1.5-1.2-2.1c-5.3-9.6-9.8-19.6-12.5-30.3
				c-2.3-9.3-4-18.6-4.5-28.2c-0.2-3.2-0.5-6.4-0.6-9.5c0-1-0.3-2.5-0.5-3.4c-0.1-0.4-0.3-0.8-0.8-0.8c-0.9,0-1.1,0.7-1.1,1.4
				c0,2.6,0,5.2,0.2,7.8c0.3,4.1,0.7,8.2,1,12.3c0.1,1.7,0.8,3.2,1.1,4.7c0.1,0.4-0.1,0.9-0.4,1.1c-0.4,0.3-0.7,0-0.8-0.3
				c-1.5-3.2-4.5-4.9-6.7-7.4c-0.6-0.7-1.2-1.5-1.8-2.3c-1.7-2.1-2.1-4-0.5-6.5c1.1-1.7,1.7-3.7,2.4-5.7c1.7-4.8,5.1-7.2,10.1-8
				c6.6-1.1,13.3-2.2,19.5-4.8c5.1-2.1,8.9-5.7,12.1-10.1c1.6-2.2,2.9-4.6,4.3-6.9c0.7-1.1,1.3-1.7,2.8-1.4c3.3,0.6,3.5,0.3,4.5-3
				c0.5-1.6,0.4-3.2,0.5-4.8c0-1.1,0.6-1.7,1.6-1.4c4.4,1,6.7-1.3,8.3-5c0.2-0.4,0.4-1,0.7-1c0.7-0.1,0.7,0.6,1,1
				c0.3,0.6,0.5,1.2,0.8,1.8c1.3,2.6,3.5,3.8,6.4,3.6c2.7-0.2,2.6-0.2,2.7,2.9c0,1.5,0.2,3,0.8,4.4c0.8,2.1,1.6,2.4,4.3,1.5
				c0.7-0.2,1.4-0.6,2.1-0.9c1.5-0.8,2.3-0.5,2.9,1.2c0.9,2.9,1.9,5.8,3.4,8.4c2.9,5.4,7.1,9.2,13.1,10.9c5.2,1.5,10.5,2.5,15.9,3.5
				c1.6,0.3,3.2,0.6,4.7,1.3c0.3,0.1,0.5,0.3,0.6,0.6c-0.2,0-0.4,0.1-0.6,0.1l0,0c-0.4,0.5-0.9,0.9-1.3,1.4
				C187.2,121.7,185.9,135,182.7,147.9z M187.9,135.2c-0.4-0.2-0.5-0.8-0.3-1.2c1.2-3.6,1.1-7.5,1.4-11.2c0.5-5.2,1.1-10.5,0.4-15.7
				c2.1,0.2,3.2,1.6,4.2,3.1c2.1,3.2,3.1,6.9,5.2,10.1c0.6,1,0.2,2.1-0.3,3.1c-0.9,1.8-2.2,3.2-3.5,4.6c-2.1,2.2-4.5,4-6,6.7
				C188.7,135,188.4,135.5,187.9,135.2z M189.8,147.3c-0.2-1.4-0.3-2.8-0.4-4.2c-0.1-4.3,1.4-7.9,4.5-10.8c2.3-2.1,4.6-4.3,6.3-7
				c0.7-1.2,1.6-1.4,2.5-0.2c0.1,0.2,0.3,0.3,0.4,0.5c1.4,1.7,3.7,2.8,4,5c0.3,2.1-2,3.5-3.2,5c-6.3,8-6.3,16.2-1.7,24.9
				c1.3,2.4,2.7,4.7,4,7.1c1.1,2,0.8,2.9-1.2,3.8c-0.9,0.4-1.8,0.7-2.8,1c-4.4,1.2-5.5,0.6-6.9-3.7
				C193,161.7,190.8,154.6,189.8,147.3z M186.8,217.1c-0.9,1-4.5,2-5.8,1.6c-1.6-0.6-2.6-2.4-2.6-4.8c0-1.7,0.5-3.2,1.1-4.7
				c0.5-1.3,1.3-1,1.9-0.2c1.8,2,3.5,4.1,5.2,6.2C187.2,215.7,187.5,216.4,186.8,217.1z M193.9,211.9c-0.5,0.7-1.1,1.3-1.8,1.9
				c-1.2,1.2-2.5,1.3-3.6-0.1c-5.6-6.6-10.9-13.4-13.6-22c-2.2-7.2,3.2-17.9,13.1-17.7c7.7,0.2,6.6,0,8.3,6.3
				c1.4,5,2.2,10.2,2.3,15.6C198.6,201.6,197.7,207.2,193.9,211.9z M201.2,205c-0.3,0.4-0.5,0.8-1,0.5c-0.4-0.2-0.4-0.7-0.2-1.2
				c2.2-7.7,0.8-15.2-0.8-22.7c0-0.1-0.1-0.2-0.1-0.3c-0.2-1.8-1.7-3.7-0.8-5.3c0.8-1.4,3.2-1,4.8-1.5c1.2-0.4,2.4-0.9,3.7-1.3
				c2-0.7,2.4-0.5,3.1,1.5c0.7,2.1,0.5,4.3,0.6,6.5C210.2,190.3,206.4,197.9,201.2,205z M218.1,148.8c-0.1,7.3-2.5,12.5-6.2,17.2
				c-1.7,2.2-2.6,2-4.1-0.4c-1.7-2.9-3.4-5.8-4.7-8.9c-2.8-6.6-2.4-12.9,2-18.7c1-1.3,2-2.6,3-3.9c1-1.2,1.9-1.2,2.9,0
				C215,138.7,218.7,143.4,218.1,148.8z"/>
		</g>
		<path class="st37" d="M108.5,49.8c-0.2-0.3-0.4-0.5-0.5-0.8C108.1,49.3,108.3,49.5,108.5,49.8z"/>
		<path class="st37" d="M154.6,142.5c-4.4,0.3-8.5-2-12.7-2.8c-1.5-0.4-3.5-0.1-4.8-1c-0.4-0.3-0.4-0.8,0-1.2c3-2,7.9,0.3,11.1,1.3
			c6.6,2.9,13.2,0.9,18.3-3.6c0.8-0.6,1.7-0.9,2.2-0.7c1.1,0.7-0.5,2.2-1.2,2.7c-3.6,3-7.9,5.5-12.7,5.2L154.6,142.5z"/>
		<path class="st37" d="M93.6,136.6c-0.7-0.7-0.9-2.1,0.3-2c1.8,0.3,3.6,2.4,5.3,3.2c2.2,1.4,4.7,2.2,7.3,2.3
			c5.7,0.3,10.7-3.7,16.4-3.4c1.5-0.1,3.4,1.3,1.4,2.3c-0.5,0.2-1.2,0.3-1.8,0.4c-3.8,0.3-7.7,1.7-11.3,2.6
			c-7.2,1.6-11.9-0.6-17.3-5.3L93.6,136.6z"/>
		<path class="st37" d="M146.4,175.5c-3.4-1.2-4.7-3.4-7.5-5.4c-1.9-1.4-4-1.6-5.7-0.3c-1.9,1.5-3.4,1.7-5.4,0.1
			c-1.6-1.3-3.7-1.2-5.5,0c-3,2.1-4.9,4.4-8.4,5.7c-0.7,0.2-1,1-0.6,1.6c0.4,0.7,1.7,0.7,2.3,0.4c0.8,3,3.6,5.1,4.7,6.7
			c0.9,1.3,2.1,2.3,3.5,2.7c4,1.3,8.1,1.3,12.2,0.3c2.8-0.7,4.4-2,6.1-4.1c0.5-0.7,2.6-5.1,3.6-5.3c0.7,0.3,1.7,0.4,2.2-0.5
			C148.5,176.6,147.2,175.8,146.4,175.5z M119,175.4c1.3-1,2.5-2,3.8-2.9c1.9-1.4,2.7-1.3,4.6,0c0.6,0.4,1.2,1,1.8,1.4
			c0.9,0.6,1.8,0.7,2.6-0.1c0.6-0.5,1.1-1,1.7-1.4c1.5-1.1,2.6-0.8,4.4,0c1.5,0.7,3.4,2.3,4.6,3.3c0.4,0.4,1.3,0.9,1.2,1.2
			c-0.1,0.4-1.2,0.4-1.6,0.5c-1.9,0.5-2.8,0.5-4.7,0.8c-4.8,0.7-14.4,0.2-16.5-0.2c-1.5-0.3-3.2-0.1-3.8-0.7
			C117.2,176.6,118.4,175.9,119,175.4z M132.2,186.5c-0.8,0-1.6-0.1-2.4,0c-3.9,0.4-7.2-1.3-9.4-4.5c-0.5-0.8-3.1-3.3-3-3.6
			c0.2-0.2,1.9,0,2.4,0.2c1.8,0.4,3.7,1,5.2,1.2c1.6,0.2,4.1,0.3,5,0c0.5-0.2,1.2-0.5,1.5-0.4c3.2,1.6,10.4-1.1,10.9-1.1
			c0.4,0,1.3-0.4,1.4-0.2c0.2,0.3-0.6,1.3-0.8,1.6C139.6,184.8,135.4,186.7,132.2,186.5z"/>
		<path class="st37" d="M153.4,170.1c0,2.9,0,5.8,0,8.7c0,0.6-0.2,1.2-0.8,1.2c-0.6,0-0.8-0.6-0.8-1.2c0-1.9-0.1-3.9-0.1-5.8
			c0-3.9,0-7.8,0-11.7c0-0.5,0.1-1.2,0.7-1.3c0.9-0.1,1,0.7,1,1.3C153.4,164.3,153.4,167.2,153.4,170.1
			C153.4,170.1,153.4,170.1,153.4,170.1z"/>
		<path class="st37" d="M108.6,169.9c0-2.7,0-5.4,0-8.1c0-0.7-0.1-1.7,1-1.7c0.8,0,0.8,0.9,0.8,1.5c0,5.4,0,10.8-0.1,16.3
			c0,0.4-0.1,0.9-0.2,1.3c-0.1,0.5-0.3,1.2-1,1c-0.5-0.1-0.5-0.6-0.5-1.1C108.6,175.9,108.6,172.9,108.6,169.9z"/>
		<path class="st37" d="M94.2,156.9c0-2.3,0-4.5,0-6.8c0-0.4,0.1-0.9,0.6-0.9c0.6,0,0.6,0.5,0.6,0.9c0,4.5,0,9-0.1,13.6
			c0,0.4-0.2,0.9-0.8,0.8c-0.2,0-0.4-0.5-0.4-0.8C94.2,161.4,94.2,159.2,94.2,156.9z"/>
		<path class="st37" d="M167.8,156.7c0,2.3,0,4.5,0,6.8c0,0.4-0.1,0.9-0.6,1c-0.6,0.1-0.7-0.5-0.7-0.9c0-4.5,0-9.1,0-13.6
			c0-0.4,0-1,0.7-0.8c0.5,0.1,0.6,0.6,0.6,1C167.8,152.4,167.8,154.5,167.8,156.7C167.8,156.7,167.8,156.7,167.8,156.7z"/>
		<path class="st37" d="M153.4,152.6c-0.1,0.9,0.4,3.6-1.3,3.1c-1.2-0.7-0.4-2.6-0.6-3.8c0-0.9-0.2-2.5,0.8-3
			c0.4-0.1,0.8,0.3,0.9,0.8c0.2,0.8,0.2,1.9,0.2,2.7L153.4,152.6z"/>
		<path class="st37" d="M110.4,152.8c-0.2,0.8,0.6,3-0.8,3c-1.8-0.1-0.7-2.2-0.9-3.5c-0.1-0.7,0-1.5,0-2.3c0-0.5,0.2-1.2,0.9-1.1
			c0.6,0.1,0.8,0.7,0.8,1.2C110.4,150.9,110.4,151.7,110.4,152.8z"/>
		<path class="st37" d="M160.7,154.3c0,1.2,0,2.4,0,3.6c0,0.3-0.2,0.6-0.5,0.7c-0.4,0.1-0.6-0.3-0.6-0.6c-0.3-2.3-0.3-4.5,0-6.8
			c0-0.3,0.3-0.7,0.7-0.5c0.2,0.1,0.5,0.5,0.5,0.7C160.8,152.4,160.7,153.4,160.7,154.3C160.7,154.3,160.7,154.3,160.7,154.3z"/>
		<path class="st37" d="M160.9,169.1c-0.1,1,0.4,2.6-0.4,3.4c-1.5,0.9-1-2.6-1-3.4c0.1-1.2-0.5-2.9,0.4-3.9c0.4-0.3,0.7,0,0.8,0.4
			c0.2,1,0.1,2.3,0.2,3.3L160.9,169.1z"/>
		<path class="st37" d="M101.2,154.6c0.1-0.7-0.4-4.5,0.9-3.8c0.5,0.4,0.6,1.6,0.5,2.3c-0.2,1.6,0.2,3.2-0.2,4.7
			c-0.1,0.3-0.3,0.7-0.7,0.6c-0.9-0.7-0.4-2.5-0.5-3.6L101.2,154.6z"/>
		<path class="st37" d="M102.2,169c0,0.3,0,1,0,1.5c-0.1,0.7,0.3,2.5-0.9,2.1c-0.5-0.4-0.5-1.1-0.5-1.7c0-1.7-0.2-3.5,0.2-5.2
			c0.1-0.3,0.5-0.8,0.8-0.6c0.3,0.2,0.3,0.7,0.3,1.1c0,0.8,0,2,0,2.6L102.2,169z"/>
		<g>
			<path class="st37" d="M132.3,82.1c2.4,0,5.6,0.2,8.6,1.3c0.5,0.2,1.2,0.5,1,1.1c-0.2,0.6-0.9,0.4-1.4,0.3
				c-5.7-1.6-11.3-1.5-17.1-0.4c-0.6,0.1-1.4,0.7-1.6-0.3c-0.1-0.8,0.8-0.8,1.4-1.1C126,82,128.8,82.1,132.3,82.1z"/>
			<path class="st37" d="M154.7,103.8c-2-2-5.6-3.9-5.7-4.7c-0.3-1.6,1.9-3.6,4.1-2.5c0.8,0.4,1.6,0.3,1.9-0.6
				c0.3-0.8-0.4-1.1-0.9-1.5c-2.5-1.7-4.9-3.6-7.6-4.9c-14.5-7-26.9-3.7-38.4,5.3c-0.4,0.3-0.8,0.8-0.5,1.4c0.3,0.8,1,0.8,1.6,0.5
				c1-0.4,1.9-1.3,3-0.5c1,0.7,1.9,1.4,2.1,2.8c-2,1.7-4.1,3.5-6.1,5.2c-0.4,0.4-1.2,0.9-0.5,1.6c0.5,0.4,1-0.1,1.4-0.4
				c2.2-1.8,4.4-3.7,6.7-5.5l0.2,0l0.2,0c0.3,0.2,0.5,0.4,0.8,0.6c0.8,0.9,2.1,1.4,2.7,2.6c-0.2,0.6-0.2,1.3-0.5,1.9
				c-0.8,1.4-1.7,2.8-2.5,4.2c-0.2,0.4-0.4,0.9,0.1,1.1c0.4,0.2,0.8-0.2,1.1-0.5c0.8-1.2,1.6-2.3,2.3-3.5c0.6-1.1,1.3-2,2.8-1.7
				c0.6,0.3,1.1,0.6,1.7,0.9c2.3,1.1,2.4,1.3,1.5,3.7c-0.4,1.1-1.5,2.7-0.3,3.3c0.7,0.4,1.2-1.8,1.5-2.8c0.5-1.8,1-2.8,4-3.2
				c1.6-0.2,3-0.3,3.8,0.6c0.4,0.4,1.2,4.3,1.8,5.3c0.2,0.3,0.5,0.5,0.8,0.3c0.3-0.1,0.5-0.5,0.3-0.8c-0.5-1.4-2.2-5.1-0.8-6.1
				c1-0.8,2.3-1.3,3.5-1.5c1.5-0.3,1.8,1.3,2.5,2.2c0.3,0.4,1.8,4.1,3,3.5c1-0.5-2.4-5.1-2.8-5.9c-0.3-0.6-0.4-1.3,0.2-1.7
				c1.3-1,2.7-2.1,4.2-1.6c1.9,0.5,3.1,2.3,5.7,4.3c0.4,0.3,0.8,0.9,1.4,0.3C155.6,104.7,155.1,104.2,154.7,103.8z M129.2,89.5
				c0.3-1.5,1.5-1.3,2.4-1.4c1.4,0,2.4,0.2,2.3,1.7c-0.1,1.2-1.3,2.1-2.5,2C130.2,91.8,129,90.6,129.2,89.5z M124.8,89
				c1.2-0.4,1.7,0.4,2,1.5c0.7,2.3,2.1,3.6,4.7,3.6c2.5,0,4.1-1.2,4.9-3.5c0.4-1.2,1-2,2.3-1.4c1.2,0.5,0.9,1.5,0.6,2.5
				c-1.2,3.4-4,5.5-7.6,5.5c-3.7,0-6.9-2.2-7.9-5.5C123.6,90.6,123.4,89.5,124.8,89z M147.8,95.4c-4.6,4.9-9.7,8.7-16.7,9
				c-2.7,0.2-5-0.8-7.2-1.9c-3.2-1.6-6-3.9-8.5-6.5c-1.6-1.6-1.4-2.3,0.5-3.5c0.6-0.4,1.3-0.8,2-1.1c2.4-1.1,2.7-1,3.7,1.5
				c1.8,4.3,5.1,6.8,9.8,6.9c4.6,0,7.8-2.4,9.7-6.5c1.3-2.9,1.4-2.9,4.2-1.5c0.7,0.3,1.3,0.7,2,1.1
				C148.4,93.6,148.7,94.4,147.8,95.4z"/>
		</g>
		<g>
			<path class="st37" d="M141.5,120.8c0.1,0,0.4,0,0.5,0.1c1.3,0.8,2.3,1.9,3.2,3.1c0.2,0.3,0.2,0.6,0,0.9c-0.1,0.1-0.4,0.3-0.6,0.2
				c-0.8,0-3.7-2.9-3.8-3.7C140.8,121,141,120.8,141.5,120.8z"/>
			<path class="st37" d="M147.9,122.8c-0.1,0.6-0.5,0.8-0.9,0.5c-1.3-0.8-2.2-2-3-3.2c-0.2-0.3-0.2-0.6,0.2-0.8
				c0.2-0.1,0.4-0.1,0.6,0C145.5,119.5,147.8,122.2,147.9,122.8z"/>
			<path class="st37" d="M147.8,118.3c0.9,0.1,1.4,0.9,1.9,1.5c0.5,0.6,1.1,1.1,0.8,2c-0.1,0.3-0.5,0.4-0.8,0.3
				c-1.1-0.7-1.7-1.9-2.3-3C147.2,118.8,147.4,118.5,147.8,118.3z"/>
			<path class="st37" d="M154.5,117.2c1.1,0.1,1.2,1.1,1.6,1.8c0.4,0.5,0.7,1.1,0.3,1.8c-0.2,0.3-0.6,0.4-0.8,0.1
				c-1-0.9-1.5-2-1.6-3.3C154,117.4,154.3,117.3,154.5,117.2z"/>
			<path class="st37" d="M151.3,117.6c0.8,0.2,2.4,2.6,2.2,3.4c-0.1,0.4-0.4,0.5-0.7,0.3c-1.1-0.8-1.7-1.9-2.1-3.2
				C150.6,117.9,150.9,117.6,151.3,117.6z"/>
			<path class="st37" d="M159.5,120c-0.2,0.2-0.4,0.7-0.5,0.7c-1.3-0.3-1.4-1.4-1.5-2.5c0-0.4,0.1-1.1,0.6-0.9
				C159.2,117.7,159.1,119,159.5,120z"/>
			<path class="st37" d="M161.8,120.9c-1.1-0.4-1.1-1.4-1.1-2.3c0-0.4,0.1-1,0.6-0.8c1.1,0.3,1.1,1.4,1.2,2.3
				C162.6,120.5,162.4,120.9,161.8,120.9z"/>
			<path class="st37" d="M173,125.2c-0.6-0.1-0.8-0.3-0.7-0.7c0.3-0.9,0.7-1.8,1.8-2c0.3-0.1,0.6,0.3,0.5,0.7
				C174.3,124,173.7,124.8,173,125.2z"/>
			<path class="st37" d="M171.6,121.7c-0.1,0.7-0.4,1.5-1.2,1.7c-0.6,0.1-0.6-0.5-0.5-0.9c0.1-0.8,0.3-1.5,1.3-1.5
				C171.5,121,171.6,121.3,171.6,121.7z"/>
			<path class="st37" d="M167,121.2c0.2-0.7,0.1-1.6,0.9-1.9c0.6-0.2,0.6,0.5,0.6,0.8c0,0.7,0.1,1.6-0.8,1.9
				C167.2,122.2,167,121.8,167,121.2z"/>
			<path class="st37" d="M165.3,119.6c-0.1,0.5,0.1,1.2-0.6,1.2c-0.7,0-0.7-0.6-0.7-1.1c0-0.5,0-1.2,0.6-1.2
				C165.4,118.5,165.2,119.2,165.3,119.6z"/>
		</g>
		<g>
			<path class="st37" d="M117.1,125c-0.3-0.1-0.5-0.3-0.4-0.7c0.2-0.9,3.1-3.6,3.9-3.5c0.2,0,0.4,0.2,0.5,0.3
				c0.2,0.5-2.7,3.6-3.6,3.9C117.3,125,117.2,125,117.1,125z"/>
			<path class="st37" d="M117.4,119.4c0.3,0.1,0.6,0.3,0.4,0.6c-0.2,0.5-0.6,0.9-0.9,1.3c-0.7,0.8-1.2,2.1-2.6,2
				c-0.3,0-0.3-0.5-0.2-0.8C114.4,121.5,116.6,119.4,117.4,119.4z"/>
			<path class="st37" d="M111.3,118.1c-0.1,0.2-0.1,0.4-0.2,0.6c-0.6,1-0.8,2.3-2.2,2.6c-0.1,0-0.3-0.3-0.3-0.4
				c-0.1-1.5,0.9-2.3,1.8-3.2c0.1-0.1,0.4-0.1,0.6-0.1C111.2,117.7,111.2,118,111.3,118.1z"/>
			<path class="st37" d="M114.4,119.2c-0.5,1-1,2.2-2.2,2.9c-0.4,0.2-0.9-0.2-0.8-0.6c0.3-1.3,1.2-2.2,2.4-2.9
				C114.2,118.4,114.3,118.8,114.4,119.2z"/>
			<path class="st37" d="M100.3,120.4c-0.5-0.1-0.8-0.3-0.8-0.8c-0.1-0.8-0.1-1.8,0.9-2c0.4-0.1,0.8,0.3,0.8,0.7
				C101.3,119.2,101.2,120,100.3,120.4z"/>
			<path class="st37" d="M88.2,122.4c0.8,0.4,1.3,1.2,1.3,2.2c0,0.3-0.4,0.6-0.7,0.4c-0.8-0.5-1.6-1.1-1.4-2.2
				C87.3,122.5,87.6,122.3,88.2,122.4z"/>
			<path class="st37" d="M91,120.7c0.9,0.5,1.2,1.3,1.2,2.3c0,0.3-0.3,0.6-0.6,0.6c-1.2-0.3-1.2-1.3-1.2-2.3
				C90.3,120.9,90.5,120.7,91,120.7z"/>
			<path class="st37" d="M103.1,120.6c-0.4-0.1-0.5-0.4-0.5-0.7c0-1,0.2-1.9,1.1-2.6c0.1-0.1,0.5,0.1,0.5,0.2c0.4,1-0.2,1.9-0.6,2.7
				C103.5,120.4,103.3,120.5,103.1,120.6z"/>
			<path class="st37" d="M107.7,118.2c-0.2,0.9-0.6,1.8-1.4,2.4c-0.1,0.1-0.4,0.2-0.6,0.1c-0.3-0.1-0.4-0.5-0.3-0.8
				c0.2-0.8,0.7-1.5,1.3-2.1c0.1-0.1,0.4-0.2,0.6-0.1C107.5,117.7,107.6,118,107.7,118.2z"/>
			<path class="st37" d="M97.7,119.5c-0.3,0.5,0.1,1.5-0.8,1.3c-0.5-0.1-0.6-0.8-0.5-1.3c0.1-0.5,0.2-1.1,0.9-1
				C97.7,118.6,97.8,119,97.7,119.5z"/>
			<path class="st37" d="M94.9,121c-0.2,0.3-0.4,0.7-0.6,0.7c-0.9,0-0.8-0.8-0.8-1.3c0-0.4-0.1-1,0.5-0.9
				C94.7,119.6,94.7,120.4,94.9,121z"/>
		</g>
		<path class="st37" d="M100.1,143.5c0.2,0.2,0.4,0.3,0.6,0.5C100.5,143.8,100.3,143.6,100.1,143.5z"/>
		<path class="st37" d="M94.9,140.9c0.2,0.2,0.5,0.4,0.7,0.6C95.3,141.3,95.1,141.1,94.9,140.9z"/>
		<path class="st37" d="M92.9,135.7c0.2,0.3,0.4,0.5,0.6,0.8C93.3,136.2,93.1,135.9,92.9,135.7z"/>
		<path class="st37" d="M134.4,106.4c0.3,0.2,0.5,0.4,0.8,0.6C135,106.8,134.7,106.6,134.4,106.4z"/>
		<path class="st37" d="M116.2,99.9c0.3,0.2,0.5,0.4,0.8,0.6C116.8,100.3,116.5,100.1,116.2,99.9z"/>
		<path class="st37" d="M193.4,178.8c-3.9-1.7-9.6,0.6-12.2,3.9c-5,6-1.2,14.3,3.2,19.4c1.3,1.3,1.8,0.8,0.9-1
			c-2.6-4.2-6-9.2-4.4-14.4c1.1-3.9,4.9-6.6,8.8-6.8C190.7,179.8,194.6,179.8,193.4,178.8L193.4,178.8z"/>
		<path class="st37" d="M71.7,179.5c-4.4-0.4-3.4-1.3-0.1-1.2c4.1,0.2,7.8,1.8,10,5.2c3.8,5.8,0.5,13.4-3.6,18
			c-3.1,2.9-1.1-1.2-0.1-2.7c1.2-1.9,2.4-4,3.1-6.2c2.4-6.3-2.8-12.4-9-13.2L71.7,179.5z"/>
		<path class="st37" d="M111.9,141.6c-0.2,0.2-0.5,0.3-0.7,0.5C111.4,141.9,111.7,141.7,111.9,141.6z"/>
		<path class="st37" d="M102,141.5c-0.3-0.2-0.5-0.4-0.8-0.6C101.5,141.1,101.8,141.3,102,141.5z"/>
		<path class="st37" d="M95.5,139.6c0.2,0.2,0.4,0.4,0.7,0.7C96,140,95.8,139.8,95.5,139.6z"/>
	</g>
</g>
</svg>
